<?xml version="1.0" encoding="UTF-8" standalone="no"?>
<!DOCTYPE svg PUBLIC "-//W3C//DTD SVG 1.1//EN"
 "http://www.w3.org/Graphics/SVG/1.1/DTD/svg11.dtd">
<!-- Generated by graphviz version 2.40.1 (20161225.0304)
 -->
<!-- Title: mygraph Pages: 1 -->
<svg width="398pt" height="332pt"
 viewBox="0.00 0.00 397.64 332.00" xmlns="http://www.w3.org/2000/svg" xmlns:xlink="http://www.w3.org/1999/xlink">
<g id="graph0" class="graph" transform="scale(1 1) rotate(0) translate(4 328)">
<title>mygraph</title>
<polygon fill="#ffffff" stroke="transparent" points="-4,4 -4,-328 393.6374,-328 393.6374,4 -4,4"/>
<!-- GardamTheorem -->
<g id="node1" class="node">
<title>GardamTheorem</title>
<ellipse fill="#00ff00" fill-opacity="0.133333" stroke="#000000" cx="138.5467" cy="-306" rx="84.5846" ry="18"/>
<text text-anchor="middle" x="138.5467" y="-301.8" font-family="Helvetica,Arial,sans-serif" font-size="14.00" fill="#000000">GardamTheorem</text>
</g>
<!-- GroupRing -->
<g id="node2" class="node">
<title>GroupRing</title>
<ellipse fill="#00ff00" fill-opacity="0.133333" stroke="#000000" cx="69.5467" cy="-234" rx="57.9391" ry="18"/>
<text text-anchor="middle" x="69.5467" y="-229.8" font-family="Helvetica,Arial,sans-serif" font-size="14.00" fill="#000000">GroupRing</text>
</g>
<!-- GardamTheorem&#45;&gt;GroupRing -->
<g id="edge1" class="edge">
<title>GardamTheorem&#45;&gt;GroupRing</title>
<path fill="none" stroke="#000000" d="M121.4905,-288.2022C112.9882,-279.3303 102.5678,-268.4569 93.2977,-258.7837"/>
<polygon fill="#000000" stroke="#000000" points="95.6146,-256.1428 86.1685,-251.3446 90.5607,-260.9862 95.6146,-256.1428"/>
</g>
<!-- TorsionFree -->
<g id="node3" class="node">
<title>TorsionFree</title>
<ellipse fill="#00ff00" fill-opacity="0.133333" stroke="#000000" cx="211.5467" cy="-234" rx="63.1557" ry="18"/>
<text text-anchor="middle" x="211.5467" y="-229.8" font-family="Helvetica,Arial,sans-serif" font-size="14.00" fill="#000000">TorsionFree</text>
</g>
<!-- GardamTheorem&#45;&gt;TorsionFree -->
<g id="edge2" class="edge">
<title>GardamTheorem&#45;&gt;TorsionFree</title>
<path fill="none" stroke="#000000" d="M156.5916,-288.2022C165.6758,-279.2425 176.8297,-268.2414 186.7096,-258.4968"/>
<polygon fill="#000000" stroke="#000000" points="189.2992,-260.8586 193.9612,-251.3446 184.3837,-255.8749 189.2992,-260.8586"/>
</g>
<!-- FreeModule -->
<g id="node4" class="node">
<title>FreeModule</title>
<ellipse fill="#00ff00" fill-opacity="0.133333" stroke="#000000" cx="62.5467" cy="-162" rx="62.5933" ry="18"/>
<text text-anchor="middle" x="62.5467" y="-157.8" font-family="Helvetica,Arial,sans-serif" font-size="14.00" fill="#000000">FreeModule</text>
</g>
<!-- GroupRing&#45;&gt;FreeModule -->
<g id="edge3" class="edge">
<title>GroupRing&#45;&gt;FreeModule</title>
<path fill="none" stroke="#000000" d="M67.7803,-215.8314C67.0316,-208.131 66.1414,-198.9743 65.3094,-190.4166"/>
<polygon fill="#000000" stroke="#000000" points="68.7882,-190.0276 64.3368,-180.4133 61.821,-190.7051 68.7882,-190.0276"/>
</g>
<!-- GardamGroup -->
<g id="node5" class="node">
<title>GardamGroup</title>
<ellipse fill="#00ff00" fill-opacity="0.133333" stroke="#000000" cx="215.5467" cy="-162" rx="72.9877" ry="18"/>
<text text-anchor="middle" x="215.5467" y="-157.8" font-family="Helvetica,Arial,sans-serif" font-size="14.00" fill="#000000">GardamGroup</text>
</g>
<!-- TorsionFree&#45;&gt;GardamGroup -->
<g id="edge4" class="edge">
<title>TorsionFree&#45;&gt;GardamGroup</title>
<path fill="none" stroke="#000000" d="M212.556,-215.8314C212.9838,-208.131 213.4925,-198.9743 213.9679,-190.4166"/>
<polygon fill="#000000" stroke="#000000" points="217.4635,-190.592 214.5237,-180.4133 210.4743,-190.2037 217.4635,-190.592"/>
</g>
<!-- AddFreeGroup -->
<g id="node6" class="node">
<title>AddFreeGroup</title>
<ellipse fill="#00ff00" fill-opacity="0.133333" stroke="#000000" cx="126.5467" cy="-90" rx="74.792" ry="18"/>
<text text-anchor="middle" x="126.5467" y="-85.8" font-family="Helvetica,Arial,sans-serif" font-size="14.00" fill="#000000">AddFreeGroup</text>
</g>
<!-- GardamGroup&#45;&gt;AddFreeGroup -->
<g id="edge5" class="edge">
<title>GardamGroup&#45;&gt;AddFreeGroup</title>
<path fill="none" stroke="#000000" d="M194.0022,-144.5708C182.5236,-135.2847 168.2388,-123.7285 155.7736,-113.6442"/>
<polygon fill="#000000" stroke="#000000" points="157.8685,-110.8371 147.8927,-107.2687 153.4658,-116.2793 157.8685,-110.8371"/>
</g>
<!-- MetabelianGroup -->
<g id="node7" class="node">
<title>MetabelianGroup</title>
<ellipse fill="#00ff00" fill-opacity="0.133333" stroke="#000000" cx="304.5467" cy="-90" rx="85.1817" ry="18"/>
<text text-anchor="middle" x="304.5467" y="-85.8" font-family="Helvetica,Arial,sans-serif" font-size="14.00" fill="#000000">MetabelianGroup</text>
</g>
<!-- GardamGroup&#45;&gt;MetabelianGroup -->
<g id="edge6" class="edge">
<title>GardamGroup&#45;&gt;MetabelianGroup</title>
<path fill="none" stroke="#000000" d="M237.0911,-144.5708C248.4853,-135.353 262.6446,-123.8983 275.0445,-113.8669"/>
<polygon fill="#000000" stroke="#000000" points="277.319,-116.5288 282.8922,-107.5182 272.9163,-111.0867 277.319,-116.5288"/>
</g>
<!-- EnumDecide -->
<g id="node8" class="node">
<title>EnumDecide</title>
<ellipse fill="#00ff00" fill-opacity="0.133333" stroke="#000000" cx="126.5467" cy="-18" rx="66.1089" ry="18"/>
<text text-anchor="middle" x="126.5467" y="-13.8" font-family="Helvetica,Arial,sans-serif" font-size="14.00" fill="#000000">EnumDecide</text>
</g>
<!-- AddFreeGroup&#45;&gt;EnumDecide -->
<g id="edge7" class="edge">
<title>AddFreeGroup&#45;&gt;EnumDecide</title>
<path fill="none" stroke="#000000" d="M126.5467,-71.8314C126.5467,-64.131 126.5467,-54.9743 126.5467,-46.4166"/>
<polygon fill="#000000" stroke="#000000" points="130.0468,-46.4132 126.5467,-36.4133 123.0468,-46.4133 130.0468,-46.4132"/>
</g>
<!-- Cocyle -->
<g id="node9" class="node">
<title>Cocyle</title>
<ellipse fill="#00ff00" fill-opacity="0.133333" stroke="#000000" cx="304.5467" cy="-18" rx="40.5886" ry="18"/>
<text text-anchor="middle" x="304.5467" y="-13.8" font-family="Helvetica,Arial,sans-serif" font-size="14.00" fill="#000000">Cocyle</text>
</g>
<!-- MetabelianGroup&#45;&gt;Cocyle -->
<g id="edge8" class="edge">
<title>MetabelianGroup&#45;&gt;Cocyle</title>
<path fill="none" stroke="#000000" d="M304.5467,-71.8314C304.5467,-64.131 304.5467,-54.9743 304.5467,-46.4166"/>
<polygon fill="#000000" stroke="#000000" points="308.0468,-46.4132 304.5467,-36.4133 301.0468,-46.4133 308.0468,-46.4132"/>
</g>
</g>
</svg>
